<svg xmlns="http://www.w3.org/2000/svg" viewBox="0 0 240 67">
  <g>
    <path fill="#7f7f7f" d="M79.8,20.1c0.3,0,0.6,0.1,0.8,0.2c0.2,0.1,0.3,0.3,0.3,0.6v10.9c0.4-0.7,0.9-1.2,1.6-1.7
	c0.7-0.5,1.6-0.7,2.7-0.8c1.7,0,3,0.6,4.2,1.8c1.1,1.1,1.7,2.6,1.7,4.3v3.5c0,1.1-0.3,2.1-0.8,3s-1.2,1.7-2.1,2.3
	c-0.9,0.6-1.8,0.9-2.9,0.9c-1,0-2-0.3-2.8-0.7c-0.8-0.5-1.4-1.1-1.8-1.7v1.4c0,0.2-0.1,0.4-0.3,0.6c-0.2,0.2-0.4,0.3-0.7,0.3
	c-0.3,0-0.6-0.1-0.7-0.3c-0.2-0.2-0.3-0.4-0.3-0.6V20.8c0-0.2,0.1-0.4,0.3-0.6C79.3,20.1,79.5,20.1,79.8,20.1L79.8,20.1z M84.9,31.2
	c-1,0-2,0.4-2.8,1.1c-0.8,0.7-1.2,1.7-1.3,3v4.5c0,0.3,0.2,0.8,0.5,1.3c0.4,0.5,0.8,0.9,1.4,1.3c0.6,0.4,1.3,0.6,2.1,0.6
	c1.1,0,2.1-0.5,2.9-1.3s1.2-1.8,1.2-2.9v-3.5c0-1.1-0.4-2-1.2-2.8C87.1,31.7,86.1,31.2,84.9,31.2L84.9,31.2z"/>
<path fill="#7f7f7f" d="M230.8,20.9c0.3,0,0.6,0.1,0.8,0.2c0.2,0.1,0.4,0.3,0.5,0.6l6.9,22c0,0,0,0.1,0,0.1c0,0,0,0.1,0,0.1
	c0,0.3-0.2,0.5-0.4,0.7c-0.3,0.2-0.6,0.3-0.9,0.3c-0.2,0-0.4,0-0.5-0.1c-0.1-0.1-0.3-0.2-0.3-0.4l-1.5-5h-9.1l-1.5,5
	c-0.1,0.2-0.2,0.3-0.3,0.4c-0.2,0.1-0.3,0.1-0.5,0.1c-0.3,0-0.6-0.1-0.8-0.2s-0.4-0.4-0.4-0.7c0,0,0-0.1,0-0.1c0,0,0-0.1,0-0.1
	l6.9-22c0.1-0.3,0.3-0.4,0.5-0.6C230.2,20.9,230.5,20.9,230.8,20.9L230.8,20.9z M230.8,24.3l-4,13.1h8L230.8,24.3L230.8,24.3
	L230.8,24.3z"/>
<path fill="#7f7f7f" d="M188.1,21.1h5.8c2,0,3.6,0.5,4.9,1.6c1.3,1.1,1.9,2.9,2,5.3v9.9c0,2.5-0.7,4.3-2,5.4c-1.3,1.1-2.9,1.6-4.9,1.6
	h-5.8c-0.3,0-0.5-0.1-0.7-0.2c-0.2-0.2-0.3-0.3-0.3-0.6V21.8c0-0.2,0.1-0.4,0.3-0.5C187.6,21.1,187.8,21.1,188.1,21.1L188.1,21.1z
	 M189.3,23v19.8h4.6c1.5,0,2.6-0.4,3.4-1.2c0.8-0.8,1.2-2.1,1.3-3.8V28c0-1.7-0.4-2.9-1.3-3.7c-0.8-0.8-2-1.2-3.4-1.2H189.3
	L189.3,23L189.3,23z"/>
<path fill="#7f7f7f" d="M206.6,21.1c0.4,0,0.7,0.2,1,0.4c0.3,0.3,0.5,0.6,0.7,1.1l8.9,17.3v-18c0-0.3,0.1-0.5,0.3-0.6
	c0.2-0.1,0.5-0.2,0.8-0.2c0.3,0,0.5,0.1,0.7,0.2c0.2,0.1,0.3,0.3,0.3,0.6v22.1c0,0.3-0.1,0.5-0.3,0.6c-0.2,0.1-0.5,0.2-0.7,0.2
	c-0.3,0-0.6-0.1-0.8-0.4c-0.2-0.2-0.4-0.5-0.6-0.9L207.7,26v18c0,0.3-0.1,0.5-0.3,0.6c-0.2,0.1-0.5,0.2-0.7,0.2
	c-0.3,0-0.5-0.1-0.8-0.2c-0.2-0.1-0.3-0.4-0.3-0.6V21.9c0-0.3,0.1-0.5,0.3-0.6C206.1,21.1,206.4,21.1,206.6,21.1L206.6,21.1z"/>
<path fill="#7f7f7f" d="M124.7,22.2l0.3,0c0.3,0.1,0.5,0.2,0.7,0.4c0.3,0.3,0.4,0.6,0.4,0.9c0,0.4-0.1,0.7-0.4,0.9
	c-0.3,0.3-0.6,0.4-1,0.4c-0.4,0-0.8-0.1-1-0.4c-0.3-0.3-0.4-0.6-0.4-0.9c0-0.4,0.2-0.7,0.4-0.9c0.2-0.2,0.5-0.3,0.7-0.4L124.7,22.2
	L124.7,22.2L124.7,22.2z"/>
<path fill="#7f7f7f" d="M115.6,29.2c1.1,0,2.1,0.2,3,0.5c0.9,0.3,1.3,0.7,1.4,1.1c0,0.2-0.1,0.4-0.2,0.7c-0.2,0.3-0.4,0.4-0.6,0.4
	c-0.3,0-0.7-0.2-1.2-0.5c-0.6-0.3-1.3-0.4-2.3-0.5c-1.2,0-2.1,0.3-2.6,0.9c-0.5,0.5-0.7,1.1-0.7,1.7c0,0.9,0.5,1.5,1.3,1.9
	c0.8,0.4,1.7,0.7,2.8,0.9c1.1,0.3,2,0.7,2.8,1.4c0.8,0.6,1.2,1.7,1.3,3.1c0,1.3-0.5,2.3-1.4,3.1s-2.2,1.1-3.9,1.1
	c-1.6,0-2.8-0.3-3.7-0.8c-0.9-0.5-1.4-1-1.4-1.5c0-0.2,0.1-0.4,0.2-0.6c0.1-0.2,0.3-0.3,0.5-0.3c0.2,0,0.5,0.2,0.8,0.4
	c0.3,0.2,0.7,0.5,1.3,0.7c0.5,0.2,1.3,0.4,2.3,0.4c1.2,0,2.1-0.2,2.6-0.7c0.5-0.4,0.8-1,0.8-1.6c0-1-0.5-1.8-1.3-2.2
	c-0.8-0.4-1.7-0.8-2.8-1c-1.1-0.3-2-0.7-2.8-1.2c-0.8-0.6-1.2-1.5-1.3-2.8c0-1.1,0.4-2.1,1.2-3C112.4,29.8,113.8,29.3,115.6,29.2
	L115.6,29.2z"/>
<path fill="#7f7f7f" d="M136.4,29.2c1.6,0,3,0.6,4.1,1.8c1.1,1.1,1.7,2.6,1.7,4.3v8.6c0,0.3-0.1,0.5-0.3,0.6c-0.2,0.1-0.5,0.2-0.7,0.2
	c-0.3,0-0.5-0.1-0.7-0.2c-0.2-0.1-0.3-0.4-0.3-0.6v-8.6c0-1.1-0.4-2-1.2-2.8c-0.8-0.8-1.7-1.2-2.9-1.3c-1,0-1.9,0.4-2.7,1.1
	c-0.8,0.7-1.2,1.7-1.2,3v8.6c0,0.2-0.1,0.4-0.3,0.6c-0.2,0.2-0.5,0.3-0.8,0.3c-0.3,0-0.6-0.1-0.8-0.3c-0.2-0.2-0.3-0.4-0.3-0.6V30.2
	c0-0.2,0.1-0.4,0.3-0.6c0.2-0.1,0.4-0.2,0.8-0.2c0.3,0,0.5,0.1,0.7,0.2c0.2,0.1,0.3,0.3,0.3,0.6v1.5c0.3-0.7,0.9-1.2,1.6-1.7
	C134.4,29.5,135.3,29.3,136.4,29.2L136.4,29.2z"/>
<path fill="#7f7f7f" d="M152,29.2c1.7,0,3.1,0.6,4.3,1.7c1.2,1.1,1.8,2.5,1.9,4.2c0,1.2-0.3,1.9-0.9,2.2c-0.6,0.3-1.2,0.4-2,0.4h-7.5
	v1.2c0,1.3,0.5,2.3,1.4,3.1c0.9,0.7,2.1,1.1,3.6,1.1c0.9,0,1.5-0.1,2-0.3c0.5-0.2,0.9-0.4,1.2-0.6c0.3-0.2,0.5-0.3,0.8-0.3
	c0.3,0,0.5,0.1,0.7,0.4c0.2,0.2,0.3,0.4,0.3,0.6c0,0.4-0.5,0.9-1.3,1.4c-0.9,0.5-2.1,0.7-3.6,0.8c-2.1,0-3.8-0.6-5.1-1.7
	c-1.3-1.1-2-2.6-2-4.5v-3.6c0-1.7,0.7-3.1,1.9-4.2S150.2,29.3,152,29.2L152,29.2z M152,31c-1.2,0-2.1,0.4-2.9,1.2
	c-0.8,0.7-1.2,1.7-1.2,2.8v1.2h6.6c0.6,0,1.1-0.1,1.3-0.2c0.2-0.2,0.3-0.4,0.3-0.9c0-1.1-0.4-2-1.1-2.8C154.2,31.5,153.2,31,152,31
	L152,31z"/>
<path fill="#7f7f7f" d="M166,29.2c1.1,0,2.1,0.2,3,0.5c0.9,0.3,1.3,0.7,1.4,1.1c0,0.2-0.1,0.4-0.2,0.7c-0.2,0.3-0.4,0.4-0.6,0.4
	c-0.3,0-0.7-0.2-1.2-0.5c-0.6-0.3-1.3-0.4-2.3-0.5c-1.2,0-2.1,0.3-2.6,0.9c-0.5,0.5-0.8,1.1-0.7,1.7c0,0.9,0.5,1.5,1.3,1.9
	c0.8,0.4,1.8,0.7,2.8,0.9c1.1,0.3,2,0.7,2.8,1.4c0.8,0.6,1.2,1.7,1.3,3.1c0,1.3-0.5,2.3-1.4,3.1c-0.9,0.7-2.2,1.1-3.9,1.1
	c-1.6,0-2.8-0.3-3.8-0.8c-0.9-0.5-1.4-1-1.4-1.5c0-0.2,0.1-0.4,0.2-0.6c0.1-0.2,0.3-0.3,0.5-0.3c0.2,0,0.5,0.2,0.8,0.4
	s0.7,0.5,1.3,0.7c0.6,0.2,1.3,0.4,2.3,0.4c1.2,0,2.1-0.2,2.6-0.7s0.8-1,0.8-1.6c0-1-0.5-1.8-1.3-2.2c-0.8-0.4-1.7-0.8-2.8-1
	c-1.1-0.3-2-0.7-2.8-1.2c-0.8-0.6-1.2-1.5-1.3-2.8c0-1.1,0.4-2.1,1.2-3C162.8,29.8,164.1,29.3,166,29.2L166,29.2z"/>
<path fill="#7f7f7f" d="M178.6,29.2c1.1,0,2.1,0.2,3,0.5s1.3,0.7,1.4,1.1c0,0.2-0.1,0.4-0.2,0.7c-0.2,0.3-0.4,0.4-0.6,0.4
	c-0.3,0-0.7-0.2-1.2-0.5c-0.6-0.3-1.3-0.4-2.3-0.5c-1.2,0-2.1,0.3-2.6,0.9c-0.5,0.5-0.7,1.1-0.7,1.7c0,0.9,0.5,1.5,1.3,1.9
	c0.8,0.4,1.7,0.7,2.8,0.9c1.1,0.3,2,0.7,2.8,1.4c0.8,0.6,1.2,1.7,1.3,3.1c0,1.3-0.5,2.3-1.4,3.1c-0.9,0.7-2.2,1.1-3.9,1.1
	c-1.6,0-2.8-0.3-3.7-0.8c-0.9-0.5-1.4-1-1.4-1.5c0-0.2,0.1-0.4,0.2-0.6c0.1-0.2,0.3-0.3,0.5-0.3c0.2,0,0.5,0.2,0.8,0.4
	s0.7,0.5,1.3,0.7s1.3,0.4,2.3,0.4c1.2,0,2.1-0.2,2.6-0.7s0.8-1,0.8-1.6c0-1-0.5-1.8-1.3-2.2c-0.8-0.4-1.7-0.8-2.8-1
	c-1.1-0.3-2-0.7-2.8-1.2c-0.8-0.6-1.2-1.5-1.3-2.8c0-1.1,0.4-2.1,1.2-3C175.5,29.8,176.8,29.3,178.6,29.2L178.6,29.2z"/>
<path fill="#7f7f7f" d="M95.6,29.5c0.3,0,0.5,0.1,0.7,0.3c0.2,0.2,0.3,0.3,0.3,0.6v8.6c0,1.1,0.4,2,1.2,2.9c0.8,0.8,1.7,1.2,2.9,1.3
	c1.2,0,2.1-0.5,2.9-1.3c0.8-0.8,1.2-1.8,1.2-2.9v-8.7c0-0.2,0.1-0.4,0.3-0.5s0.5-0.2,0.8-0.2c0.3,0,0.6,0.1,0.7,0.2
	c0.2,0.1,0.3,0.3,0.3,0.5v8.7c0,1.7-0.7,3.1-1.9,4.3c-1.2,1.2-2.7,1.8-4.4,1.8c-1.8-0.1-3.3-0.7-4.4-1.8c-1.2-1.2-1.8-2.6-1.8-4.2
	v-8.6c0-0.2,0.1-0.4,0.3-0.6C95,29.6,95.3,29.5,95.6,29.5L95.6,29.5z"/>
<path fill="#7f7f7f" d="M124.7,29.5c0.3,0,0.6,0.1,0.8,0.2c0.2,0.1,0.3,0.3,0.3,0.6v13.7c0,0.2-0.1,0.4-0.3,0.6
	c-0.2,0.2-0.5,0.3-0.8,0.3c-0.3,0-0.6-0.1-0.8-0.3c-0.2-0.2-0.3-0.4-0.3-0.6V30.2c0-0.2,0.1-0.4,0.3-0.6
	C124.2,29.5,124.4,29.5,124.7,29.5L124.7,29.5z"/>
<polygon fill="#7f7f7f" points="39.5,11.6 39.5,11.6 39.9,11.7 40.3,11.8 40.7,12 41.1,12.2 41.4,12.6 41.7,12.9 41.9,13.3 42,13.7
	42,13.8 42.9,14.2 42.9,14.2 44.2,14.9 45.4,15.7 46.6,16.6 47.6,17.5 48.7,18.5 49.7,19.6 50.6,20.7 51.4,21.9 52.1,23.1
	52.7,24.5 53.3,25.8 53.8,27.2 54.1,28.6 54.4,30.1 54.6,31.6 54.6,33.1 54.6,33.1 54.6,34.3 54.5,35.5 54.3,36.7 54.1,37.8
	53.8,38.9 53.5,40 53.1,41 52.6,42.1 52.4,42.6 60.3,47.1 60.3,47.1 60.6,47.2 60.7,47.4 60.8,47.6 61,47.8 61,48.1 61,48.4
	60.9,48.6 60.8,48.8 60.8,48.8 60.4,49.4 60.4,49.4 59.4,51.1 58.2,52.7 56.8,54.3 55.4,55.6 53.9,57 52.4,58.3 50.7,59.4 49,60.5
	47.2,61.4 45.4,62.2 43.4,62.9 41.5,63.5 39.4,64 37.3,64.4 35.2,64.6 33.1,64.6 33.1,64.6 31.5,64.6 30,64.5 28.5,64.3 27,64.1
	25.6,63.8 24.2,63.4 22.7,63 21.4,62.4 20.1,61.9 18.7,61.3 17.4,60.7 16.2,59.9 15,59.1 13.8,58.3 12.7,57.5 11.6,56.6 10.9,55.9
	10.6,56 10.6,56 10.2,56 9.9,56 9.5,55.9 9.1,55.8 8.8,55.6 8.5,55.3 8.3,55 8,54.7 8,54.7 7.8,54.3 7.7,53.8 7.7,53.3 7.7,52.8
	7.9,52.3 8.2,51.9 8.5,51.5 9,51.2 9,51.2 9.5,51 9.9,50.9 10.5,50.9 10.9,50.9 11.4,51.1 11.9,51.4 12.2,51.7 12.6,52.1 12.6,52.1
	12.8,52.5 12.8,52.9 12.9,53.3 12.9,53.7 12.8,54.1 14.3,55.4 14.3,55.4 15.3,56.2 16.3,56.9 17.3,57.6 18.4,58.2 19.5,58.8
	20.6,59.3 21.7,59.9 22.9,60.3 24.1,60.7 25.4,61.1 26.6,61.3 27.8,61.6 29.1,61.8 30.4,61.9 31.7,62 33.1,62 33.1,62 34.9,62
	36.8,61.8 38.5,61.5 40.3,61.2 42,60.7 43.7,60.1 45.3,59.4 46.9,58.7 48.4,57.8 49.9,56.9 51.3,55.8 52.6,54.8 53.9,53.6
	55.1,52.3 56.2,51 57.2,49.6 57.9,48.6 50,44.2 50,44.2 49.7,43.9 49.5,43.6 49.3,43.3 49.3,42.9 49.5,42.4 49.5,42.4 49.7,42
	49.7,42 50.3,41 50.7,40 51.1,38.9 51.5,37.8 51.7,36.7 51.9,35.5 52,34.3 52,33.1 52,33.1 52,31.8 51.9,30.5 51.6,29.1 51.3,27.9
	50.9,26.7 50.4,25.5 49.8,24.4 49.2,23.3 48.4,22.2 47.6,21.2 46.8,20.3 45.9,19.4 45,18.6 43.9,17.9 42.8,17.1 41.7,16.5
	41.1,16.2 40.9,16.3 40.9,16.3 40.6,16.5 40.2,16.7 39.9,16.8 39.5,16.8 39.5,16.8 38.9,16.7 38.4,16.6 38,16.3 37.6,16.1
	37.2,15.7 37,15.2 36.8,14.7 36.8,14.2 36.8,14.2 36.8,13.7 37,13.2 37.2,12.8 37.6,12.4 38,12.1 38.4,11.8 38.9,11.7 39.5,11.6
	39.5,11.6 39.5,11.6 "/>
<polygon fill="#7f7f7f" points="33,1.6 33,1.6 33,1.6 33,1.6 34.7,1.6 36.3,1.8 37.9,2 39.5,2.2 41.1,2.5 42.6,3 44.1,3.5 45.5,4.1
	46.9,4.7 48.3,5.4 49.6,6.1 51,7 52.2,7.8 53.4,8.8 54.6,9.8 55.7,10.8 56.7,11.9 57.7,13.1 58.7,14.3 59.6,15.5 60.4,16.8
	61.2,18.1 61.9,19.4 62.6,20.9 63.2,22.3 63.6,23.7 64.1,25.2 64.4,26.8 64.7,28.4 64.9,29.9 65,31.5 65.1,33.1 65.1,33.1 65,35
	64.8,36.8 64.6,38.5 64.2,40.3 64.2,40.5 64.4,40.8 64.4,40.8 64.6,41.1 64.8,41.5 64.9,41.8 64.9,42.2 64.9,42.5 64.8,42.9
	64.8,43.3 64.6,43.6 64.6,43.6 64.3,44 63.9,44.4 63.5,44.6 63,44.8 62.5,44.9 62,44.9 61.5,44.8 61,44.6 61,44.6 60.5,44.3
	60.2,43.9 59.9,43.5 59.8,43 59.7,42.5 59.7,42.1 59.8,41.5 60.1,41.1 60.1,41.1 60.3,40.7 60.7,40.3 61.2,40 61.6,39.9 61.6,39.9
	62,38.6 62,38.6 62.2,37.3 62.4,35.9 62.4,34.5 62.5,33.1 62.5,33.1 62.4,31.7 62.3,30.3 62.2,28.9 61.9,27.5 61.6,26.1 61.2,24.8
	60.7,23.5 60.3,22.2 59.7,20.9 59.1,19.7 58.5,18.5 57.7,17.4 56.9,16.2 56.1,15.2 55.3,14.1 54.3,13.1 53.4,12.2 52.4,11.3
	51.3,10.4 50.2,9.6 49.1,8.8 47.9,8.1 46.7,7.4 45.5,6.9 44.2,6.3 42.9,5.8 41.6,5.4 40.2,5 38.8,4.7 37.4,4.5 36,4.3 34.5,4.2
	34.3,4.2 34.3,13.1 34.3,13.1 34.3,13.4 34.3,13.6 34,14 33.6,14.3 33.2,14.5 33,14.5 33,14.5 31.1,14.5 31.1,14.5 30.2,14.7
	29.3,14.8 28.4,15 27.6,15.3 26.7,15.5 25.9,15.8 24.4,16.5 22.9,17.3 21.5,18.3 20.2,19.4 19,20.5 17.9,21.9 16.9,23.3 16.1,24.7
	15.4,26.3 15.1,27.1 14.8,27.9 14.6,28.8 14.4,29.6 14.3,30.5 14.2,31.3 14.1,32.3 14.1,33.1 14.2,34.8 14.4,34.8 14.4,34.8
	14.7,35 15,35.2 15.2,35.6 15.4,35.9 15.4,35.9 15.7,36.4 15.8,36.8 15.8,37.4 15.7,37.8 15.6,38.3 15.3,38.7 15,39.1 14.5,39.4
	14.5,39.4 14,39.6 13.5,39.7 13,39.7 12.5,39.7 12.1,39.5 11.6,39.2 11.3,38.9 10.9,38.5 10.9,38.5 10.7,38 10.6,37.6 10.6,37.2
	10.6,36.8 10.7,36.3 10.9,35.9 11.1,35.6 11.5,35.2 11.5,35.2 11.5,34.2 11.5,34.2 11.5,33.1 11.5,33.1 11.5,32.1 11.5,31.1
	11.7,30.2 11.8,29.2 12,28.3 12.3,27.4 12.5,26.4 12.9,25.6 13.2,24.7 13.6,23.9 14,23 14.5,22.2 15,21.4 15.6,20.7 16.1,19.9
	16.7,19.2 17.4,18.5 18,17.8 18.7,17.2 19.4,16.6 20.2,16 20.9,15.5 21.7,15 22.5,14.5 23.4,14.1 24.3,13.7 25.1,13.3 26,13
	26.9,12.7 27.9,12.5 28.8,12.3 29.8,12.1 31.7,11.9 31.7,2.9 31.7,2.9 31.7,2.6 31.8,2.4 31.9,2.2 32,2 32.2,1.8 32.5,1.7 32.7,1.6
	33,1.6 33,1.6 33,1.6 "/>
<polygon fill="#7f7f7f" points="26.5,1 26.5,1 27,1.1 27.5,1.2 28,1.5 28.4,1.8 28.6,2.1 28.9,2.6 29,3 29.1,3.6 29.1,3.6 29,4.1
	28.9,4.6 28.6,5 28.4,5.4 28,5.7 27.5,6 27,6.1 26.5,6.2 26.5,6.2 26.1,6.2 25.7,6 25.3,5.9 25,5.7 24.7,5.4 23.3,5.8 23.3,5.8
	22.3,6.2 21.2,6.6 20.2,7.1 19.2,7.6 18.2,8.1 17.2,8.7 16.3,9.3 15.4,9.9 14.5,10.6 13.7,11.3 12.8,12.1 12,12.8 11.3,13.6
	10.5,14.5 9.9,15.3 9.1,16.2 8.5,17.1 7.9,18 7.3,19 6.8,20 6.3,21 5.8,21.9 5.4,23 5,24.1 4.7,25.2 4.4,26.2 4.2,27.4 4,28.5
	3.8,29.6 3.7,30.8 3.6,31.9 3.6,33.1 3.6,33.1 3.6,34.8 3.7,36.3 4,37.9 4.3,39.5 4.7,41 5.2,42.5 5.7,43.9 6.4,45.3 6.9,46.5
	14.8,42 14.8,42 15.1,41.9 15.3,41.8 15.6,41.8 15.8,41.8 16,42 16.3,42.1 16.4,42.2 16.6,42.4 16.6,42.4 16.6,42.4 17.3,43.5
	17.3,43.5 18,44.5 18.7,45.3 19.4,46.1 20.2,46.9 21.1,47.6 22.1,48.3 23,49 24,49.5 25,50 26.1,50.5 27.2,50.9 28.3,51.1
	29.4,51.4 30.6,51.6 31.8,51.7 33.1,51.7 33.1,51.7 34.5,51.7 36,51.5 37.4,51.3 38.8,50.9 40.1,50.4 41.5,49.8 42.7,49.2
	43.9,48.4 44,48.4 43.9,48.2 43.9,48.2 43.9,47.8 44,47.4 44.1,47 44.3,46.7 44.3,46.7 44.6,46.3 45,45.9 45.4,45.7 45.8,45.5
	46.4,45.4 46.8,45.5 47.4,45.5 47.8,45.8 47.8,45.8 48.2,46.1 48.7,46.5 48.9,46.9 49.1,47.3 49.1,47.8 49.1,48.3 49,48.8
	48.8,49.3 48.8,49.3 48.5,49.6 48.2,50 47.8,50.2 47.4,50.4 47,50.6 46.6,50.6 46.2,50.6 45.7,50.4 45.6,50.4 45.4,50.6 45.4,50.6
	44,51.4 42.6,52.1 41.1,52.8 39.6,53.3 38.1,53.8 36.4,54.1 34.7,54.2 33.1,54.3 33.1,54.3 31.6,54.3 30.3,54.2 29,54 27.6,53.7
	26.4,53.3 25.1,52.9 23.9,52.3 22.7,51.8 21.6,51.1 20.5,50.4 19.5,49.6 18.5,48.8 17.6,48 16.7,47 15.9,46 15.2,45 15,44.8 7,49.4
	7,49.4 6.8,49.5 6.6,49.5 6.3,49.5 6.1,49.5 5.8,49.4 5.6,49.3 5.4,49.1 5.3,48.9 5.3,48.9 4.8,48.1 4.8,48.1 4,46.5 3.2,44.7
	2.5,42.9 2,41 1.5,39.1 1.2,37.1 1.1,35.2 1,33.1 1,33.1 1,31.9 1.1,30.5 1.2,29.3 1.4,28.1 1.6,26.8 1.9,25.6 2.2,24.5 2.5,23.3
	3,22.1 3.4,21 4,19.9 4.5,18.8 5,17.7 5.7,16.7 6.3,15.7 7,14.7 7.8,13.8 8.5,12.8 9.3,11.9 10.2,11 11.1,10.2 11.9,9.4 12.9,8.6
	13.8,7.9 14.8,7.2 15.8,6.5 16.9,5.9 18,5.3 19,4.8 20.2,4.2 21.3,3.8 22.5,3.4 24,2.9 24.1,2.6 24.1,2.6 24.3,2.3 24.5,1.9
	24.7,1.7 25,1.5 25.3,1.3 25.7,1.1 26.1,1.1 26.5,1 26.5,1 26.5,1 "/>
  </g>
</svg>
